{
  "accessors": [
    {
      "bufferView": 2,
      "componentType": 5126,
      "count": 15149,
      "max": [
        0.26448947191238403,
        0.36676549911499023,
        0.3378639221191406
      ],
      "min": [
        -0.28458285331726074,
        -0.429680734872818,
        -0.29143667221069336
      ],
      "type": "VEC3"
    },
    {
      "bufferView": 2,
      "byteOffset": 181788,
      "componentType": 5126,
      "count": 15149,
      "max": [
        0.9994624853134155,
        0.9998922348022461,
        0.9996094703674316
      ],
      "min": [
        -0.9997736215591431,
        -0.9990954399108887,
        -0.9998239278793335
      ],
      "type": "VEC3"
    },
    {
      "bufferView": 1,
      "componentType": 5126,
      "count": 15149,
      "max": [
        0.9879988431930542,
        0.999942421913147
      ],
      "min": [
        1.7620623111724854e-05,
        1.9080936908721924e-05
      ],
      "type": "VEC2"
    },
    {
      "bufferView": 0,
      "componentType": 5125,
      "count": 81468,
      "type": "SCALAR"
    },
    {
      "bufferView": 2,
      "byteOffset": 363576,
      "componentType": 5126,
      "count": 13256,
      "max": [
        0.2545011043548584,
        0.367327481508255,
        0.3257155418395996
      ],
      "min": [
        -0.2791414260864258,
        -0.4309881925582886,
        -0.29372692108154297
      ],
      "type": "VEC3"
    },
    {
      "bufferView": 2,
      "byteOffset": 522648,
      "componentType": 5126,
      "count": 13256,
      "max": [
        0.9999786615371704,
        0.9997955560684204,
        0.9996671676635742
      ],
      "min": [
        -0.99967360496521,
        -0.9994792938232422,
        -0.9999991655349731
      ],
      "type": "VEC3"
    },
    {
      "bufferView": 1,
      "byteOffset": 121192,
      "componentType": 5126,
      "count": 13256,
      "max": [
        0.9999532103538513,
        0.9933405518531799
      ],
      "min": [
        4.551759411697276e-05,
        4.1194260120391846e-05
      ],
      "type": "VEC2"
    },
    {
      "bufferView": 0,
      "byteOffset": 325872,
      "componentType": 5125,
      "count": 72186,
      "type": "SCALAR"
    },
    {
      "bufferView": 2,
      "byteOffset": 681720,
      "componentType": 5126,
      "count": 13275,
      "max": [
        0.2669823169708252,
        0.38565269112586975,
        0.3402223587036133
      ],
      "min": [
        -0.27909332513809204,
        -0.4309844374656677,
        -0.29546260833740234
      ],
      "type": "VEC3"
    },
    {
      "bufferView": 2,
      "byteOffset": 841020,
      "componentType": 5126,
      "count": 13275,
      "max": [
        0.9999791383743286,
        0.9996145963668823,
        0.9998757839202881
      ],
      "min": [
        -0.9999645948410034,
        -0.9994792938232422,
        -0.9999352693557739
      ],
      "type": "VEC3"
    },
    {
      "bufferView": 1,
      "byteOffset": 227240,
      "componentType": 5126,
      "count": 13275,
      "max": [
        0.9999780058860779,
        0.9969044327735901
      ],
      "min": [
        5.1612500101327896e-05,
        3.8333262637024745e-05
      ],
      "type": "VEC2"
    },
    {
      "bufferView": 0,
      "byteOffset": 614616,
      "componentType": 5125,
      "count": 72546,
      "type": "SCALAR"
    }
  ],
  "asset": {
    "extras": {
      "author": "matousekfoto (https://sketchfab.com/matousekfoto)",
      "license": "CC-BY-4.0 (http://creativecommons.org/licenses/by/4.0/)",
      "source": "https://sketchfab.com/3d-models/adromischus-succulent-young-de99d6d321f441a2b595a2d7b37a5b4e",
      "title": "Adromischus succulent young"
    },
    "generator": "Sketchfab-12.67.0",
    "version": "2.0"
  },
  "bufferViews": [
    {
      "buffer": 0,
      "byteLength": 904800,
      "name": "floatBufferViews",
      "target": 34963
    },
    {
      "buffer": 0,
      "byteLength": 333440,
      "byteOffset": 904800,
      "byteStride": 8,
      "name": "floatBufferViews",
      "target": 34962
    },
    {
      "buffer": 0,
      "byteLength": 1000320,
      "byteOffset": 1238240,
      "byteStride": 12,
      "name": "floatBufferViews",
      "target": 34962
    }
  ],
  "buffers": [
    {
      "byteLength": 2238560,
      "uri": "scene.bin"
    }
  ],
  "extensionsUsed": [
    "KHR_materials_unlit"
  ],
  "images": [
    {
      "uri": "textures/material2_baseColor.jpeg"
    },
    {
      "uri": "textures/material0_baseColor.jpeg"
    },
    {
      "uri": "textures/material1_baseColor.jpeg"
    }
  ],
  "materials": [
    {
      "doubleSided": true,
      "extensions": {
        "KHR_materials_unlit": {}
      },
      "name": "material2",
      "pbrMetallicRoughness": {
        "baseColorTexture": {
          "index": 0
        },
        "metallicFactor": 0.0
      }
    },
    {
      "doubleSided": true,
      "extensions": {
        "KHR_materials_unlit": {}
      },
      "name": "material0",
      "pbrMetallicRoughness": {
        "baseColorTexture": {
          "index": 1
        },
        "metallicFactor": 0.0
      }
    },
    {
      "doubleSided": true,
      "extensions": {
        "KHR_materials_unlit": {}
      },
      "name": "material1",
      "pbrMetallicRoughness": {
        "baseColorTexture": {
          "index": 2
        },
        "metallicFactor": 0.0
      }
    }
  ],
  "meshes": [
    {
      "name": "Model_material2_0",
      "primitives": [
        {
          "attributes": {
            "NORMAL": 1,
            "POSITION": 0,
            "TEXCOORD_0": 2
          },
          "indices": 3,
          "material": 0,
          "mode": 4
        }
      ]
    },
    {
      "name": "Model_material0_0",
      "primitives": [
        {
          "attributes": {
            "NORMAL": 5,
            "POSITION": 4,
            "TEXCOORD_0": 6
          },
          "indices": 7,
          "material": 1,
          "mode": 4
        }
      ]
    },
    {
      "name": "Model_material1_0",
      "primitives": [
        {
          "attributes": {
            "NORMAL": 9,
            "POSITION": 8,
            "TEXCOORD_0": 10
          },
          "indices": 11,
          "material": 2,
          "mode": 4
        }
      ]
    }
  ],
  "nodes": [
    {
      "children": [
        1
      ],
      "matrix": [
        -0.2238752062420346,
        0.009235179489480052,
        -0.009213888942068314,
        0.0,
        0.0062030329430267095,
        0.21469711148456125,
        0.06447451768972816,
        0.0,
        0.01147635191579921,
        0.06411047063206614,
        -0.21458897538658303,
        0.0,
        -0.018106570467352867,
        0.03804669529199599,
        0.05023943260312081,
        1.0
      ],
      "name": "Sketchfab_model"
    },
    {
      "children": [
        2
      ],
      "matrix": [
        0.009999999776482582,
        0.0,
        0.0,
        0.0,
        0.0,
        0.0,
        0.009999999776482582,
        0.0,
        0.0,
        -0.009999999776482582,
        0.0,
        0.0,
        0.0,
        0.0,
        0.0,
        1.0
      ],
      "name": "piece2-cactus.fbx"
    },
    {
      "children": [
        3
      ],
      "name": "RootNode"
    },
    {
      "children": [
        4,
        5,
        6
      ],
      "matrix": [
        100.0,
        0.0,
        0.0,
        0.0,
        0.0,
        -1.629206793918314e-05,
        -99.99999999999868,
        0.0,
        0.0,
        99.99999999999868,
        -1.629206793918314e-05,
        0.0,
        0.0,
        0.0,
        0.0,
        1.0
      ],
      "name": "Model"
    },
    {
      "mesh": 0,
      "name": "Model_material2_0"
    },
    {
      "mesh": 1,
      "name": "Model_material0_0"
    },
    {
      "mesh": 2,
      "name": "Model_material1_0"
    }
  ],
  "samplers": [
    {
      "magFilter": 9729,
      "minFilter": 9987,
      "wrapS": 10497,
      "wrapT": 10497
    }
  ],
  "scene": 0,
  "scenes": [
    {
      "name": "Sketchfab_Scene",
      "nodes": [
        0
      ]
    }
  ],
  "textures": [
    {
      "sampler": 0,
      "source": 0
    },
    {
      "sampler": 0,
      "source": 1
    },
    {
      "sampler": 0,
      "source": 2
    }
  ]
}
