{
  "accessors": [
    {
      "bufferView": 2,
      "componentType": 5126,
      "count": 2059,
      "max": [
        6.128668785095215,
        12.69306755065918,
        17.596515655517578
      ],
      "min": [
        -1.7039929628372192,
        3.8191471099853516,
        16.812299728393555
      ],
      "type": "VEC3"
    },
    {
      "bufferView": 2,
      "byteOffset": 24708,
      "componentType": 5126,
      "count": 2059,
      "max": [
        0.9999897480010986,
        0.9999933838844299,
        1.0
      ],
      "min": [
        -0.9997490048408508,
        -0.9996757507324219,
        -1.0
      ],
      "type": "VEC3"
    },
    {
      "bufferView": 3,
      "componentType": 5126,
      "count": 2059,
      "max": [
        1.0,
        0.9983311295509338,
        0.9817408323287964,
        1.0
      ],
      "min": [
        -0.999984860420227,
        -0.99998939037323,
        -1.0,
        -1.0
      ],
      "type": "VEC4"
    },
    {
      "bufferView": 1,
      "componentType": 5126,
      "count": 2059,
      "max": [
        1.0032540559768677,
        1.00497305393219
      ],
      "min": [
        0.3895780146121979,
        0.42034998536109924
      ],
      "type": "VEC2"
    },
    {
      "bufferView": 0,
      "componentType": 5125,
      "count": 10416,
      "type": "SCALAR"
    },
    {
      "bufferView": 2,
      "byteOffset": 49416,
      "componentType": 5126,
      "count": 1099,
      "max": [
        2.578197956085205,
        25.166770935058594,
        18.076313018798828
      ],
      "min": [
        -4.469755172729492,
        8.164344787597656,
        16.257568359375
      ],
      "type": "VEC3"
    },
    {
      "bufferView": 2,
      "byteOffset": 62604,
      "componentType": 5126,
      "count": 1099,
      "max": [
        0.9999695420265198,
        0.9972149729728699,
        0.9999992251396179
      ],
      "min": [
        -0.999997615814209,
        -0.9994150996208191,
        -0.9999992251396179
      ],
      "type": "VEC3"
    },
    {
      "bufferView": 3,
      "byteOffset": 32944,
      "componentType": 5126,
      "count": 1099,
      "max": [
        0.9998615384101868,
        0.9999969005584717,
        0.9999971985816956,
        1.0
      ],
      "min": [
        -0.9986543655395508,
        -0.9999971389770508,
        -0.8203633427619934,
        1.0
      ],
      "type": "VEC4"
    },
    {
      "bufferView": 1,
      "byteOffset": 16472,
      "componentType": 5126,
      "count": 1099,
      "max": [
        0.9963170289993286,
        0.8321099877357483
      ],
      "min": [
        0.34564200043678284,
        0.009367999620735645
      ],
      "type": "VEC2"
    },
    {
      "bufferView": 0,
      "byteOffset": 41664,
      "componentType": 5125,
      "count": 4992,
      "type": "SCALAR"
    },
    {
      "bufferView": 2,
      "byteOffset": 75792,
      "componentType": 5126,
      "count": 3467,
      "max": [
        6.3983330726623535,
        66.00904083251953,
        17.74371337890625
      ],
      "min": [
        -6.887035846710205,
        21.55052375793457,
        16.61778450012207
      ],
      "type": "VEC3"
    },
    {
      "bufferView": 2,
      "byteOffset": 117396,
      "componentType": 5126,
      "count": 3467,
      "max": [
        0.9999922513961792,
        0.9999863505363464,
        1.0
      ],
      "min": [
        -0.999996542930603,
        -0.9999391436576843,
        -1.0
      ],
      "type": "VEC3"
    },
    {
      "bufferView": 3,
      "byteOffset": 50528,
      "componentType": 5126,
      "count": 3467,
      "max": [
        0.9434287548065186,
        0.9994603395462036,
        0.9999997615814209,
        1.0
      ],
      "min": [
        -0.9999997615814209,
        -0.9976772665977478,
        -0.9999833106994629,
        -1.0
      ],
      "type": "VEC4"
    },
    {
      "bufferView": 1,
      "byteOffset": 25264,
      "componentType": 5126,
      "count": 3467,
      "max": [
        0.3325810134410858,
        1.0025830268859863
      ],
      "min": [
        0.005843000020831823,
        0.014313999563455582
      ],
      "type": "VEC2"
    },
    {
      "bufferView": 0,
      "byteOffset": 61632,
      "componentType": 5125,
      "count": 15888,
      "type": "SCALAR"
    }
  ],
  "asset": {
    "extras": {
      "author": "yimni (https://sketchfab.com/yimni)",
      "license": "CC-BY-4.0 (http://creativecommons.org/licenses/by/4.0/)",
      "source": "https://sketchfab.com/3d-models/dagger-of-nyx-fd358a4590ee435688500106fc7807d8",
      "title": "Dagger of Nyx"
    },
    "generator": "Sketchfab-12.68.0",
    "version": "2.0"
  },
  "bufferViews": [
    {
      "buffer": 0,
      "byteLength": 125184,
      "name": "floatBufferViews",
      "target": 34963
    },
    {
      "buffer": 0,
      "byteLength": 53000,
      "byteOffset": 125184,
      "byteStride": 8,
      "name": "floatBufferViews",
      "target": 34962
    },
    {
      "buffer": 0,
      "byteLength": 159000,
      "byteOffset": 178184,
      "byteStride": 12,
      "name": "floatBufferViews",
      "target": 34962
    },
    {
      "buffer": 0,
      "byteLength": 106000,
      "byteOffset": 337184,
      "byteStride": 16,
      "name": "floatBufferViews",
      "target": 34962
    }
  ],
  "buffers": [
    {
      "byteLength": 443184,
      "uri": "scene.bin"
    }
  ],
  "images": [
    {
      "uri": "textures/lambert1_baseColor.jpeg"
    },
    {
      "uri": "textures/lambert1_metallicRoughness.png"
    },
    {
      "uri": "textures/lambert1_emissive.jpeg"
    },
    {
      "uri": "textures/lambert1_normal.png"
    },
    {
      "uri": "textures/Rubber_Grip_baseColor.jpeg"
    },
    {
      "uri": "textures/Rubber_Grip_metallicRoughness.png"
    },
    {
      "uri": "textures/Rubber_Grip_normal.png"
    }
  ],
  "materials": [
    {
      "doubleSided": true,
      "emissiveFactor": [
        1.0,
        1.0,
        1.0
      ],
      "emissiveTexture": {
        "index": 2
      },
      "name": "lambert1",
      "normalTexture": {
        "index": 3
      },
      "occlusionTexture": {
        "index": 1
      },
      "pbrMetallicRoughness": {
        "baseColorTexture": {
          "index": 0
        },
        "metallicRoughnessTexture": {
          "index": 1
        }
      }
    },
    {
      "doubleSided": true,
      "name": "Rubber_Grip",
      "normalTexture": {
        "index": 6
      },
      "occlusionTexture": {
        "index": 5
      },
      "pbrMetallicRoughness": {
        "baseColorTexture": {
          "index": 4
        },
        "metallicRoughnessTexture": {
          "index": 5
        }
      }
    }
  ],
  "meshes": [
    {
      "name": "defaultMaterial",
      "primitives": [
        {
          "attributes": {
            "NORMAL": 1,
            "POSITION": 0,
            "TANGENT": 2,
            "TEXCOORD_0": 3
          },
          "indices": 4,
          "material": 0,
          "mode": 4
        }
      ]
    },
    {
      "name": "defaultMaterial",
      "primitives": [
        {
          "attributes": {
            "NORMAL": 6,
            "POSITION": 5,
            "TANGENT": 7,
            "TEXCOORD_0": 8
          },
          "indices": 9,
          "material": 1,
          "mode": 4
        }
      ]
    },
    {
      "name": "defaultMaterial",
      "primitives": [
        {
          "attributes": {
            "NORMAL": 11,
            "POSITION": 10,
            "TANGENT": 12,
            "TEXCOORD_0": 13
          },
          "indices": 14,
          "material": 0,
          "mode": 4
        }
      ]
    }
  ],
  "nodes": [
    {
      "children": [
        1
      ],
      "matrix": [
        0.04285092279314995,
        -0.9182643294334413,
        0.3936425447463987,
        0.0,
        0.0802314281463623,
        -0.3895691633224485,
        -0.9174959659576417,
        0.0,
        0.9958547949790955,
        0.07089804857969283,
        0.056980263441801085,
        0.0,
        -33.62594223022461,
        25.526676177978516,
        -0.47688415646552473,
        1.0
      ],
      "name": "Sketchfab_model"
    },
    {
      "children": [
        2
      ],
      "matrix": [
        1.0,
        0.0,
        0.0,
        0.0,
        0.0,
        -4.371139006309477e-08,
        0.999999999999999,
        0.0,
        0.0,
        -0.999999999999999,
        -4.371139006309477e-08,
        0.0,
        0.0,
        0.0,
        0.0,
        1.0
      ],
      "name": "Collada visual scene group"
    },
    {
      "children": [
        3,
        5,
        7
      ],
      "name": "Dagger"
    },
    {
      "children": [
        4
      ],
      "name": "Talon"
    },
    {
      "mesh": 0,
      "name": "defaultMaterial"
    },
    {
      "children": [
        6
      ],
      "name": "Handle"
    },
    {
      "mesh": 1,
      "name": "defaultMaterial"
    },
    {
      "children": [
        8
      ],
      "name": "Blade"
    },
    {
      "mesh": 2,
      "name": "defaultMaterial"
    }
  ],
  "samplers": [
    {
      "magFilter": 9729,
      "minFilter": 9987,
      "wrapS": 10497,
      "wrapT": 10497
    }
  ],
  "scene": 0,
  "scenes": [
    {
      "name": "Sketchfab_Scene",
      "nodes": [
        0
      ]
    }
  ],
  "textures": [
    {
      "sampler": 0,
      "source": 0
    },
    {
      "sampler": 0,
      "source": 1
    },
    {
      "sampler": 0,
      "source": 2
    },
    {
      "sampler": 0,
      "source": 3
    },
    {
      "sampler": 0,
      "source": 4
    },
    {
      "sampler": 0,
      "source": 5
    },
    {
      "sampler": 0,
      "source": 6
    }
  ]
}
