{
  "accessors": [
    {
      "bufferView": 2,
      "componentType": 5126,
      "count": 65532,
      "max": [
        12.726869583129883,
        11.924066543579102,
        21.091716766357422
      ],
      "min": [
        -11.254423141479492,
        -8.567773818969727,
        1.9207687377929688
      ],
      "type": "VEC3"
    },
    {
      "bufferView": 2,
      "byteOffset": 786384,
      "componentType": 5126,
      "count": 65532,
      "max": [
        0.9999970197677612,
        0.9999980926513672,
        0.9999862909317017
      ],
      "min": [
        -0.9999807476997375,
        -0.9991347193717957,
        -1.0
      ],
      "type": "VEC3"
    },
    {
      "bufferView": 3,
      "componentType": 5126,
      "count": 65532,
      "max": [
        1.0,
        0.9999793171882629,
        1.0,
        1.0
      ],
      "min": [
        -1.0,
        -0.9997150897979736,
        -1.0,
        -1.0
      ],
      "type": "VEC4"
    },
    {
      "bufferView": 1,
      "componentType": 5126,
      "count": 65532,
      "max": [
        0.9995068311691284,
        0.9428709745407104
      ],
      "min": [
        0.00048828125,
        0.0004921747604385018
      ],
      "type": "VEC2"
    },
    {
      "bufferView": 0,
      "componentType": 5125,
      "count": 275595,
      "type": "SCALAR"
    },
    {
      "bufferView": 2,
      "byteOffset": 1572768,
      "componentType": 5126,
      "count": 65532,
      "max": [
        12.010030746459961,
        7.550311088562012,
        18.441669464111328
      ],
      "min": [
        -7.3347954750061035,
        -9.038732528686523,
        1.9207687377929688
      ],
      "type": "VEC3"
    },
    {
      "bufferView": 2,
      "byteOffset": 2359152,
      "componentType": 5126,
      "count": 65532,
      "max": [
        0.9999970197677612,
        0.9999904632568359,
        0.9999890327453613
      ],
      "min": [
        -0.9999984502792358,
        -0.9999915361404419,
        -0.9994332790374756
      ],
      "type": "VEC3"
    },
    {
      "bufferView": 3,
      "byteOffset": 1048512,
      "componentType": 5126,
      "count": 65532,
      "max": [
        1.0,
        0.9987680315971375,
        1.0,
        1.0
      ],
      "min": [
        -1.0,
        -0.999098002910614,
        -1.0,
        -1.0
      ],
      "type": "VEC4"
    },
    {
      "bufferView": 1,
      "byteOffset": 524256,
      "componentType": 5126,
      "count": 65532,
      "max": [
        0.999466598033905,
        0.9565428495407104
      ],
      "min": [
        0.00048828125,
        0.0004883004585281014
      ],
      "type": "VEC2"
    },
    {
      "bufferView": 0,
      "byteOffset": 1102380,
      "componentType": 5125,
      "count": 279045,
      "type": "SCALAR"
    },
    {
      "bufferView": 2,
      "byteOffset": 3145536,
      "componentType": 5126,
      "count": 16327,
      "max": [
        7.5721611976623535,
        9.842364311218262,
        18.80123519897461
      ],
      "min": [
        -9.693102836608887,
        -9.038732528686523,
        9.005975723266602
      ],
      "type": "VEC3"
    },
    {
      "bufferView": 2,
      "byteOffset": 3341460,
      "componentType": 5126,
      "count": 16327,
      "max": [
        0.9999970197677612,
        0.9999223351478577,
        0.9999839663505554
      ],
      "min": [
        -0.9999171495437622,
        -0.99986332654953,
        -0.992274284362793
      ],
      "type": "VEC3"
    },
    {
      "bufferView": 3,
      "byteOffset": 2097024,
      "componentType": 5126,
      "count": 16327,
      "max": [
        1.0,
        0.9999964237213135,
        1.0,
        1.0
      ],
      "min": [
        -0.9999988675117493,
        -0.9986627101898193,
        -0.9999995231628418,
        -1.0
      ],
      "type": "VEC4"
    },
    {
      "bufferView": 1,
      "byteOffset": 1048512,
      "componentType": 5126,
      "count": 16327,
      "max": [
        0.999491810798645,
        0.9405502676963806
      ],
      "min": [
        0.00048828125,
        0.0004918767372146249
      ],
      "type": "VEC2"
    },
    {
      "bufferView": 0,
      "byteOffset": 2218560,
      "componentType": 5125,
      "count": 45144,
      "type": "SCALAR"
    }
  ],
  "asset": {
    "extras": {
      "author": "Kevin N. Murphy (https://sketchfab.com/knmurphy)",
      "license": "CC-BY-4.0 (http://creativecommons.org/licenses/by/4.0/)",
      "source": "https://sketchfab.com/3d-models/zebra-plant-in-white-pot-first-attempt-1e886fb67923452e995e10076b2563e6",
      "title": "Zebra Plant in white pot - First Attempt"
    },
    "generator": "Sketchfab-12.68.0",
    "version": "2.0"
  },
  "bufferViews": [
    {
      "buffer": 0,
      "byteLength": 2399136,
      "name": "floatBufferViews",
      "target": 34963
    },
    {
      "buffer": 0,
      "byteLength": 1179128,
      "byteOffset": 2399136,
      "byteStride": 8,
      "name": "floatBufferViews",
      "target": 34962
    },
    {
      "buffer": 0,
      "byteLength": 3537384,
      "byteOffset": 3578264,
      "byteStride": 12,
      "name": "floatBufferViews",
      "target": 34962
    },
    {
      "buffer": 0,
      "byteLength": 2358256,
      "byteOffset": 7115648,
      "byteStride": 16,
      "name": "floatBufferViews",
      "target": 34962
    }
  ],
  "buffers": [
    {
      "byteLength": 9473904,
      "uri": "scene.bin"
    }
  ],
  "images": [
    {
      "uri": "textures/tex_u1_v1_baseColor.jpeg"
    },
    {
      "uri": "textures/tex_u1_v1_normal.png"
    }
  ],
  "materials": [
    {
      "doubleSided": true,
      "name": "tex_u1_v1",
      "normalTexture": {
        "index": 1
      },
      "pbrMetallicRoughness": {
        "baseColorTexture": {
          "index": 0
        },
        "metallicFactor": 0.0
      }
    }
  ],
  "meshes": [
    {
      "name": "Object_0",
      "primitives": [
        {
          "attributes": {
            "NORMAL": 1,
            "POSITION": 0,
            "TANGENT": 2,
            "TEXCOORD_0": 3
          },
          "indices": 4,
          "material": 0,
          "mode": 4
        }
      ]
    },
    {
      "name": "Object_1",
      "primitives": [
        {
          "attributes": {
            "NORMAL": 6,
            "POSITION": 5,
            "TANGENT": 7,
            "TEXCOORD_0": 8
          },
          "indices": 9,
          "material": 0,
          "mode": 4
        }
      ]
    },
    {
      "name": "Object_2",
      "primitives": [
        {
          "attributes": {
            "NORMAL": 11,
            "POSITION": 10,
            "TANGENT": 12,
            "TEXCOORD_0": 13
          },
          "indices": 14,
          "material": 0,
          "mode": 4
        }
      ]
    }
  ],
  "nodes": [
    {
      "children": [
        1
      ],
      "matrix": [
        0.01970641501247883,
        0.0,
        0.0,
        0.0,
        0.0,
        4.375703135934567e-18,
        -0.01970641501247883,
        0.0,
        0.0,
        0.01970641501247883,
        4.375703135934567e-18,
        0.0,
        0.0,
        0.0,
        0.0,
        1.0
      ],
      "name": "Sketchfab_model"
    },
    {
      "children": [
        2,
        3,
        4
      ],
      "name": "model.obj.cleaner.materialmerger.gles"
    },
    {
      "mesh": 0,
      "name": "Object_2"
    },
    {
      "mesh": 1,
      "name": "Object_3"
    },
    {
      "mesh": 2,
      "name": "Object_4"
    }
  ],
  "samplers": [
    {
      "magFilter": 9729,
      "minFilter": 9987,
      "wrapS": 10497,
      "wrapT": 10497
    }
  ],
  "scene": 0,
  "scenes": [
    {
      "name": "Sketchfab_Scene",
      "nodes": [
        0
      ]
    }
  ],
  "textures": [
    {
      "sampler": 0,
      "source": 0
    },
    {
      "sampler": 0,
      "source": 1
    }
  ]
}
