{
  "accessors": [
    {
      "bufferView": 2,
      "componentType": 5126,
      "count": 642,
      "max": [
        46.02843475341797,
        -117.31826782226563,
        28.72344970703125
      ],
      "min": [
        -46.02843475341797,
        -217.07284545898438,
        -28.72344970703125
      ],
      "type": "VEC3"
    },
    {
      "bufferView": 2,
      "byteOffset": 7704,
      "componentType": 5126,
      "count": 642,
      "max": [
        0.923250675201416,
        1.0,
        1.0
      ],
      "min": [
        -0.923250675201416,
        -1.0,
        -1.0
      ],
      "type": "VEC3"
    },
    {
      "bufferView": 1,
      "componentType": 5126,
      "count": 642,
      "max": [
        0.9496690034866333,
        0.9943308234214783
      ],
      "min": [
        0.0,
        0.0
      ],
      "type": "VEC2"
    },
    {
      "bufferView": 1,
      "byteOffset": 5136,
      "componentType": 5126,
      "count": 642,
      "max": [
        0.9496690034866333,
        0.9943308234214783
      ],
      "min": [
        0.0,
        0.0
      ],
      "type": "VEC2"
    },
    {
      "bufferView": 0,
      "componentType": 5125,
      "count": 840,
      "type": "SCALAR"
    },
    {
      "bufferView": 2,
      "byteOffset": 15408,
      "componentType": 5126,
      "count": 1295,
      "max": [
        109.66210174560547,
        38.184303283691406,
        32.97845458984375
      ],
      "min": [
        -109.66210174560547,
        -38.18321990966797,
        -32.97845458984375
      ],
      "type": "VEC3"
    },
    {
      "bufferView": 2,
      "byteOffset": 30948,
      "componentType": 5126,
      "count": 1295,
      "max": [
        1.0,
        1.0,
        1.0
      ],
      "min": [
        -1.0,
        -1.0,
        -1.0
      ],
      "type": "VEC3"
    },
    {
      "bufferView": 1,
      "byteOffset": 10272,
      "componentType": 5126,
      "count": 1295,
      "max": [
        0.8676795959472656,
        0.9013164639472961
      ],
      "min": [
        0.06127452850341797,
        0.0
      ],
      "type": "VEC2"
    },
    {
      "bufferView": 1,
      "byteOffset": 20632,
      "componentType": 5126,
      "count": 1295,
      "max": [
        0.8676795959472656,
        0.9013164639472961
      ],
      "min": [
        0.06127452850341797,
        0.0
      ],
      "type": "VEC2"
    },
    {
      "bufferView": 0,
      "byteOffset": 3360,
      "componentType": 5125,
      "count": 1608,
      "type": "SCALAR"
    },
    {
      "bufferView": 2,
      "byteOffset": 46488,
      "componentType": 5126,
      "count": 488,
      "max": [
        26.181324005126953,
        277.9372863769531,
        22.858116149902344
      ],
      "min": [
        -26.60922622680664,
        -27.844011306762695,
        -22.858116149902344
      ],
      "type": "VEC3"
    },
    {
      "bufferView": 2,
      "byteOffset": 52344,
      "componentType": 5126,
      "count": 488,
      "max": [
        1.0,
        0.9999673366546631,
        1.0
      ],
      "min": [
        -1.0,
        -0.8977421522140503,
        -1.0
      ],
      "type": "VEC3"
    },
    {
      "bufferView": 1,
      "byteOffset": 30992,
      "componentType": 5126,
      "count": 488,
      "max": [
        0.6115337610244751,
        0.8397373557090759
      ],
      "min": [
        0.0,
        0.0
      ],
      "type": "VEC2"
    },
    {
      "bufferView": 1,
      "byteOffset": 34896,
      "componentType": 5126,
      "count": 488,
      "max": [
        0.6115337610244751,
        0.8397373557090759
      ],
      "min": [
        0.0,
        0.0
      ],
      "type": "VEC2"
    },
    {
      "bufferView": 0,
      "byteOffset": 9792,
      "componentType": 5125,
      "count": 1908,
      "type": "SCALAR"
    },
    {
      "bufferView": 2,
      "byteOffset": 58200,
      "componentType": 5126,
      "count": 1824,
      "max": [
        0.060091614723205566,
        0.06009113788604736,
        0.17877435684204102
      ],
      "min": [
        -0.06011521816253662,
        -0.06011289358139038,
        -1.1760783195495605
      ],
      "type": "VEC3"
    },
    {
      "bufferView": 2,
      "byteOffset": 80088,
      "componentType": 5126,
      "count": 1824,
      "max": [
        0.9999896287918091,
        0.9999895095825195,
        0.8177998661994934
      ],
      "min": [
        -0.9999958276748657,
        -0.9997684955596924,
        -0.8547055721282959
      ],
      "type": "VEC3"
    },
    {
      "bufferView": 1,
      "byteOffset": 38800,
      "componentType": 5126,
      "count": 1824,
      "max": [
        0.9013670086860657,
        1.497070074081421
      ],
      "min": [
        0.7724609971046448,
        1.41845703125
      ],
      "type": "VEC2"
    },
    {
      "bufferView": 1,
      "byteOffset": 53392,
      "componentType": 5126,
      "count": 1824,
      "max": [
        0.9013670086860657,
        1.497070074081421
      ],
      "min": [
        0.7724609971046448,
        1.41845703125
      ],
      "type": "VEC2"
    },
    {
      "bufferView": 0,
      "byteOffset": 17424,
      "componentType": 5125,
      "count": 2688,
      "type": "SCALAR"
    }
  ],
  "asset": {
    "extras": {
      "author": "The WarVet (https://sketchfab.com/TheWidowedWarVet)",
      "license": "CC-BY-4.0 (http://creativecommons.org/licenses/by/4.0/)",
      "source": "https://sketchfab.com/3d-models/whipcross-6366a6fdee654f03b5110c4760cd9647",
      "title": "WhipCross"
    },
    "generator": "Sketchfab-13.63.0",
    "version": "2.0"
  },
  "bufferViews": [
    {
      "buffer": 0,
      "byteLength": 28176,
      "name": "floatBufferViews",
      "target": 34963
    },
    {
      "buffer": 0,
      "byteLength": 67984,
      "byteOffset": 28176,
      "byteStride": 8,
      "name": "floatBufferViews",
      "target": 34962
    },
    {
      "buffer": 0,
      "byteLength": 101976,
      "byteOffset": 96160,
      "byteStride": 12,
      "name": "floatBufferViews",
      "target": 34962
    }
  ],
  "buffers": [
    {
      "byteLength": 198136,
      "uri": "scene.bin"
    }
  ],
  "images": [
    {
      "uri": "textures/Diff_baseColor.jpeg"
    }
  ],
  "materials": [
    {
      "doubleSided": true,
      "name": "Diff",
      "pbrMetallicRoughness": {
        "baseColorTexture": {
          "index": 0
        },
        "metallicFactor": 0.1630481159561629,
        "roughnessFactor": 0.296296
      }
    }
  ],
  "meshes": [
    {
      "name": "Object_0",
      "primitives": [
        {
          "attributes": {
            "NORMAL": 1,
            "POSITION": 0,
            "TEXCOORD_0": 2,
            "TEXCOORD_1": 3
          },
          "indices": 4,
          "material": 0,
          "mode": 4
        }
      ]
    },
    {
      "name": "Object_1",
      "primitives": [
        {
          "attributes": {
            "NORMAL": 6,
            "POSITION": 5,
            "TEXCOORD_0": 7,
            "TEXCOORD_1": 8
          },
          "indices": 9,
          "material": 0,
          "mode": 4
        }
      ]
    },
    {
      "name": "Object_2",
      "primitives": [
        {
          "attributes": {
            "NORMAL": 11,
            "POSITION": 10,
            "TEXCOORD_0": 12,
            "TEXCOORD_1": 13
          },
          "indices": 14,
          "material": 0,
          "mode": 4
        }
      ]
    },
    {
      "name": "Object_3",
      "primitives": [
        {
          "attributes": {
            "NORMAL": 16,
            "POSITION": 15,
            "TEXCOORD_0": 17,
            "TEXCOORD_1": 18
          },
          "indices": 19,
          "material": 0,
          "mode": 4
        }
      ]
    }
  ],
  "nodes": [
    {
      "children": [
        1
      ],
      "matrix": [
        1.0,
        0.0,
        0.0,
        0.0,
        0.0,
        2.220446049250313e-16,
        -1.0,
        0.0,
        0.0,
        1.0,
        2.220446049250313e-16,
        0.0,
        0.0,
        0.0,
        0.0,
        1.0
      ],
      "name": "Sketchfab_model"
    },
    {
      "children": [
        2
      ],
      "name": "root"
    },
    {
      "children": [
        3,
        5,
        7,
        9
      ],
      "matrix": [
        1.0,
        0.0,
        0.0,
        0.0,
        0.0,
        2.220446049250313e-16,
        1.0,
        0.0,
        0.0,
        -1.0,
        2.220446049250313e-16,
        0.0,
        0.0,
        0.0,
        0.0,
        1.0
      ],
      "name": "GLTF_SceneRootNode"
    },
    {
      "children": [
        4
      ],
      "matrix": [
        0.002402844838798046,
        0.0,
        0.0,
        0.0,
        0.0,
        -0.002402844838798046,
        0.0,
        -0.0,
        0.0,
        0.0,
        0.002402844838798046,
        0.0,
        -0.0003088903031311929,
        0.22131231427192688,
        -0.12015561759471893,
        1.0
      ],
      "name": "Head_0"
    },
    {
      "mesh": 0,
      "name": "Object_4"
    },
    {
      "children": [
        6
      ],
      "matrix": [
        0.002402844838798046,
        0.0,
        0.0,
        0.0,
        -0.0,
        -0.002402844838798046,
        0.0,
        -0.0,
        -0.0,
        -0.0,
        -0.002402844838798046,
        -0.0,
        0.00014647503849118948,
        0.21328185498714447,
        -0.12019403278827667,
        1.0
      ],
      "name": "Middle_1"
    },
    {
      "mesh": 1,
      "name": "Object_6"
    },
    {
      "children": [
        8
      ],
      "matrix": [
        0.002402844838798046,
        0.0,
        0.0,
        0.0,
        0.0,
        -0.002402844838798046,
        0.0,
        -0.0,
        0.0,
        0.0,
        0.002402844838798046,
        0.0,
        -0.0004031274584122002,
        0.05869698524475098,
        -0.12014009803533554,
        1.0
      ],
      "name": "Handle_2"
    },
    {
      "mesh": 2,
      "name": "Object_8"
    },
    {
      "children": [
        10
      ],
      "matrix": [
        0.6197518706321716,
        0.0,
        -0.0,
        0.0,
        -0.0,
        5.224117503604106e-08,
        -0.6197518706321695,
        0.0,
        0.0,
        0.6197518706321695,
        5.224117503604106e-08,
        0.0,
        -0.0004329085350036621,
        0.5242891311645508,
        -0.12217040359973907,
        1.0
      ],
      "name": "Chain_3"
    },
    {
      "mesh": 3,
      "name": "Object_10"
    }
  ],
  "samplers": [
    {
      "magFilter": 9729,
      "minFilter": 9987,
      "wrapS": 10497,
      "wrapT": 10497
    }
  ],
  "scene": 0,
  "scenes": [
    {
      "name": "Sketchfab_Scene",
      "nodes": [
        0
      ]
    }
  ],
  "textures": [
    {
      "sampler": 0,
      "source": 0
    }
  ]
}
