{
  "accessors": [
    {
      "bufferView": 2,
      "componentType": 5126,
      "count": 39875,
      "max": [
        2.364985942840576,
        3.0893380641937256,
        2.481921911239624
      ],
      "min": [
        -1.5453460216522217,
        -2.245810031890869,
        -3.356055974960327
      ],
      "type": "VEC3"
    },
    {
      "bufferView": 2,
      "byteOffset": 478500,
      "componentType": 5126,
      "count": 39875,
      "max": [
        0.9999996423721313,
        0.9998763799667358,
        0.9999529719352722
      ],
      "min": [
        -0.9999765753746033,
        -0.9998010993003845,
        -0.9999577403068542
      ],
      "type": "VEC3"
    },
    {
      "bufferView": 3,
      "componentType": 5126,
      "count": 39875,
      "max": [
        0.9999538660049438,
        0.9999545812606812,
        0.9999992251396179,
        1.0
      ],
      "min": [
        -0.9999688267707825,
        -0.999984860420227,
        -0.9999440908432007,
        -1.0
      ],
      "type": "VEC4"
    },
    {
      "bufferView": 3,
      "byteOffset": 638000,
      "componentType": 5126,
      "count": 39875,
      "max": [
        0.8509804010391235,
        0.8470588326454163,
        0.6980392336845398,
        1.0
      ],
      "min": [
        0.0,
        0.0,
        0.0,
        1.0
      ],
      "type": "VEC4"
    },
    {
      "bufferView": 1,
      "componentType": 5126,
      "count": 39875,
      "max": [
        0.9999930262565613,
        0.9985259771347046
      ],
      "min": [
        3.000000106112566e-06,
        2.9999999242136255e-05
      ],
      "type": "VEC2"
    },
    {
      "bufferView": 0,
      "componentType": 5125,
      "count": 149997,
      "type": "SCALAR"
    }
  ],
  "asset": {
    "extras": {
      "author": "Makovetkyi Volodymyr (https://sketchfab.com/pbr-scans)",
      "license": "CC-BY-4.0 (http://creativecommons.org/licenses/by/4.0/)",
      "source": "https://sketchfab.com/3d-models/plant-b81a9132420346beba641d37db38c96a",
      "title": "plant"
    },
    "generator": "Sketchfab-12.67.0",
    "version": "2.0"
  },
  "bufferViews": [
    {
      "buffer": 0,
      "byteLength": 599988,
      "name": "floatBufferViews",
      "target": 34963
    },
    {
      "buffer": 0,
      "byteLength": 319000,
      "byteOffset": 599988,
      "byteStride": 8,
      "name": "floatBufferViews",
      "target": 34962
    },
    {
      "buffer": 0,
      "byteLength": 957000,
      "byteOffset": 918988,
      "byteStride": 12,
      "name": "floatBufferViews",
      "target": 34962
    },
    {
      "buffer": 0,
      "byteLength": 1276000,
      "byteOffset": 1875988,
      "byteStride": 16,
      "name": "floatBufferViews",
      "target": 34962
    }
  ],
  "buffers": [
    {
      "byteLength": 3151988,
      "uri": "scene.bin"
    }
  ],
  "images": [
    {
      "uri": "textures/plant_baseColor.jpeg"
    },
    {
      "uri": "textures/plant_metallicRoughness.png"
    },
    {
      "uri": "textures/plant_normal.png"
    }
  ],
  "materials": [
    {
      "doubleSided": true,
      "name": "plant",
      "normalTexture": {
        "index": 2
      },
      "occlusionTexture": {
        "index": 1,
        "strength": 0.46380320911539563
      },
      "pbrMetallicRoughness": {
        "baseColorTexture": {
          "index": 0
        },
        "metallicFactor": 0.0,
        "metallicRoughnessTexture": {
          "index": 1
        }
      }
    }
  ],
  "meshes": [
    {
      "name": "Object_0",
      "primitives": [
        {
          "attributes": {
            "COLOR_0": 3,
            "NORMAL": 1,
            "POSITION": 0,
            "TANGENT": 2,
            "TEXCOORD_0": 4
          },
          "indices": 5,
          "material": 0,
          "mode": 4
        }
      ]
    }
  ],
  "nodes": [
    {
      "children": [
        1
      ],
      "matrix": [
        1.0,
        0.0,
        0.0,
        0.0,
        0.0,
        2.220446049250313e-16,
        -1.0,
        0.0,
        0.0,
        1.0,
        2.220446049250313e-16,
        0.0,
        0.0,
        0.0,
        0.0,
        1.0
      ],
      "name": "Sketchfab_model"
    },
    {
      "children": [
        2
      ],
      "name": "plant.obj.cleaner.materialmerger.gles"
    },
    {
      "mesh": 0,
      "name": "Object_2"
    }
  ],
  "samplers": [
    {
      "magFilter": 9729,
      "minFilter": 9987,
      "wrapS": 10497,
      "wrapT": 10497
    }
  ],
  "scene": 0,
  "scenes": [
    {
      "name": "Sketchfab_Scene",
      "nodes": [
        0
      ]
    }
  ],
  "textures": [
    {
      "sampler": 0,
      "source": 0
    },
    {
      "sampler": 0,
      "source": 1
    },
    {
      "sampler": 0,
      "source": 2
    }
  ]
}
