{
  "accessors": [
    {
      "bufferView": 2,
      "componentType": 5126,
      "count": 65532,
      "max": [
        0.16834799945354462,
        0.16901199519634247,
        0.0003800000122282654
      ],
      "min": [
        -0.20191100239753723,
        -0.18417799472808838,
        -0.657006025314331
      ],
      "type": "VEC3"
    },
    {
      "bufferView": 2,
      "byteOffset": 786384,
      "componentType": 5126,
      "count": 65532,
      "max": [
        0.9999628663063049,
        0.9999879598617554,
        0.9998930096626282
      ],
      "min": [
        -0.9999963045120239,
        -0.9999027848243713,
        -0.9999964833259583
      ],
      "type": "VEC3"
    },
    {
      "bufferView": 1,
      "componentType": 5126,
      "count": 65532,
      "max": [
        0.9995989799499512,
        0.999987006187439
      ],
      "min": [
        2.700000004551839e-05,
        0.0007719999994151294
      ],
      "type": "VEC2"
    },
    {
      "bufferView": 0,
      "componentType": 5125,
      "count": 355668,
      "type": "SCALAR"
    },
    {
      "bufferView": 2,
      "byteOffset": 1572768,
      "componentType": 5126,
      "count": 40751,
      "max": [
        0.16834799945354462,
        0.17218199372291565,
        -0.0005039999959990382
      ],
      "min": [
        -0.194814994931221,
        -0.1911270022392273,
        -0.6558129787445068
      ],
      "type": "VEC3"
    },
    {
      "bufferView": 2,
      "byteOffset": 2061780,
      "componentType": 5126,
      "count": 40751,
      "max": [
        0.9999849200248718,
        0.9998992681503296,
        0.9997372627258301
      ],
      "min": [
        -0.9998138546943665,
        -0.9999859929084778,
        -0.9999374747276306
      ],
      "type": "VEC3"
    },
    {
      "bufferView": 1,
      "byteOffset": 524256,
      "componentType": 5126,
      "count": 40751,
      "max": [
        0.9993540048599243,
        0.9992039799690247
      ],
      "min": [
        0.00039400000241585076,
        0.00017899999511428177
      ],
      "type": "VEC2"
    },
    {
      "bufferView": 0,
      "byteOffset": 1422672,
      "componentType": 5125,
      "count": 217368,
      "type": "SCALAR"
    }
  ],
  "asset": {
    "extras": {
      "author": "Anatoly Ropaev (https://sketchfab.com/anatolyropaev)",
      "license": "CC-BY-4.0 (http://creativecommons.org/licenses/by/4.0/)",
      "source": "https://sketchfab.com/3d-models/indoor-plant-dieffenbachia-9cf12658f38341d38843278d634d45c5",
      "title": "Indoor Plant Dieffenbachia"
    },
    "generator": "Sketchfab-13.96.0",
    "version": "2.0"
  },
  "bufferViews": [
    {
      "buffer": 0,
      "byteLength": 2292144,
      "name": "floatBufferViews",
      "target": 34963
    },
    {
      "buffer": 0,
      "byteLength": 850264,
      "byteOffset": 2292144,
      "byteStride": 8,
      "name": "floatBufferViews",
      "target": 34962
    },
    {
      "buffer": 0,
      "byteLength": 2550792,
      "byteOffset": 3142408,
      "byteStride": 12,
      "name": "floatBufferViews",
      "target": 34962
    }
  ],
  "buffers": [
    {
      "byteLength": 5693200,
      "uri": "scene.bin"
    }
  ],
  "images": [
    {
      "uri": "textures/Dieffenbachia_baseColor.png"
    }
  ],
  "materials": [
    {
      "doubleSided": true,
      "name": "Dieffenbachia",
      "pbrMetallicRoughness": {
        "baseColorTexture": {
          "index": 0
        },
        "metallicFactor": 0.0
      }
    }
  ],
  "meshes": [
    {
      "name": "Object_0",
      "primitives": [
        {
          "attributes": {
            "NORMAL": 1,
            "POSITION": 0,
            "TEXCOORD_0": 2
          },
          "indices": 3,
          "material": 0,
          "mode": 4
        }
      ]
    },
    {
      "name": "Object_1",
      "primitives": [
        {
          "attributes": {
            "NORMAL": 5,
            "POSITION": 4,
            "TEXCOORD_0": 6
          },
          "indices": 7,
          "material": 0,
          "mode": 4
        }
      ]
    }
  ],
  "nodes": [
    {
      "children": [
        1
      ],
      "matrix": [
        1.0,
        0.0,
        0.0,
        0.0,
        0.0,
        2.220446049250313e-16,
        -1.0,
        0.0,
        0.0,
        1.0,
        2.220446049250313e-16,
        0.0,
        0.0,
        0.0,
        0.0,
        1.0
      ],
      "name": "Sketchfab_model"
    },
    {
      "children": [
        2
      ],
      "name": "root"
    },
    {
      "children": [
        3
      ],
      "matrix": [
        1.0,
        0.0,
        0.0,
        0.0,
        0.0,
        2.220446049250313e-16,
        1.0,
        0.0,
        0.0,
        -1.0,
        2.220446049250313e-16,
        0.0,
        0.0,
        0.0,
        0.0,
        1.0
      ],
      "name": "GLTF_SceneRootNode"
    },
    {
      "children": [
        4,
        5
      ],
      "matrix": [
        1.0,
        0.0,
        0.0,
        0.0,
        0.0,
        -1.685873969314855e-07,
        0.9999999999999858,
        0.0,
        0.0,
        -0.9999999999999858,
        -1.685873969314855e-07,
        0.0,
        0.0,
        0.0,
        0.0,
        1.0
      ],
      "name": "Dieffenbachia_0"
    },
    {
      "mesh": 0,
      "name": "Object_4"
    },
    {
      "mesh": 1,
      "name": "Object_5"
    }
  ],
  "samplers": [
    {
      "magFilter": 9729,
      "minFilter": 9987,
      "wrapS": 10497,
      "wrapT": 10497
    }
  ],
  "scene": 0,
  "scenes": [
    {
      "name": "Sketchfab_Scene",
      "nodes": [
        0
      ]
    }
  ],
  "textures": [
    {
      "sampler": 0,
      "source": 0
    }
  ]
}
